<svg width="1293" height="1293" viewBox="0 0 1293 1293" fill="none" xmlns="http://www.w3.org/2000/svg">
<path d="M1006.29 225.587C1011.94 228.925 1016.89 233.345 1020.84 238.594C1024.79 243.844 1027.67 249.82 1029.31 256.182C1030.95 262.544 1031.32 269.167 1030.4 275.672C1029.49 282.177 1027.29 288.438 1023.96 294.097L825.993 629.66L731.823 789.267L554.296 1090.19C550.957 1095.85 546.536 1100.8 541.285 1104.75C536.034 1108.7 530.057 1111.57 523.694 1113.21C517.332 1114.85 510.708 1115.23 504.202 1114.31C497.696 1113.39 491.435 1111.19 485.776 1107.85L418.105 1067.91C406.679 1061.17 398.4 1050.16 395.089 1037.32C391.778 1024.47 393.706 1010.83 400.448 999.405L603.068 655.994L697.238 496.376L870.114 203.33C876.856 191.903 887.862 183.621 900.71 180.307C913.558 176.994 927.196 178.919 938.624 185.66L1006.29 225.587Z" fill="#536BAB"/>
<path d="M697.237 496.377L603.068 655.994L276.147 317.566C271.582 312.841 267.993 307.263 265.583 301.15C263.174 295.037 261.993 288.51 262.106 281.941C262.22 275.371 263.626 268.889 266.245 262.863C268.864 256.837 272.645 251.386 277.371 246.822L333.879 192.235C343.421 183.017 356.235 177.966 369.501 178.194C382.767 178.423 395.399 183.91 404.62 193.451L697.237 496.377Z" fill="#4F56A1"/>
</svg>
