<svg width="33" height="34" viewBox="0 0 33 34" fill="none" xmlns="http://www.w3.org/2000/svg">
<path fill-rule="evenodd" clip-rule="evenodd" d="M20.063 21.3151C18.2639 22.7808 15.9584 23.663 13.4373 23.663C7.65054 23.663 3 19.0151 3 13.3315C3 7.64789 7.65054 3 13.4373 3C19.2241 3 23.8747 7.64789 23.8747 13.3315C23.8747 16.1503 22.7308 18.7143 20.8717 20.583L20.8349 20.5463L20.063 21.3151ZM20.6409 24.5874C18.5589 25.9017 16.0878 26.663 13.4373 26.663C6.0161 26.663 0 20.6943 0 13.3315C0 5.96871 6.0161 0 13.4373 0C20.8586 0 26.8747 5.96871 26.8747 13.3315C26.8747 16.9834 25.3946 20.2924 22.9971 22.7002L31.505 31.1752L29.3796 33.2924L20.6409 24.5874Z" fill="white"/>
</svg>
